<mxfile host="app.diagrams.net" modified="2024-01-20T13:54:39.266Z" agent="Mozilla/5.0 (Windows NT 10.0; Win64; x64; rv:121.0) Gecko/20100101 Firefox/121.0" etag="CSIx-vu5I2us1IRCn97J" version="22.1.21" type="github">
  <diagram id="C5RBs43oDa-KdzZeNtuy" name="Page-1">
    <mxGraphModel dx="1285" dy="801" grid="1" gridSize="10" guides="1" tooltips="1" connect="1" arrows="1" fold="1" page="1" pageScale="1" pageWidth="827" pageHeight="1169" math="0" shadow="0">
      <root>
        <mxCell id="WIyWlLk6GJQsqaUBKTNV-0" />
        <mxCell id="WIyWlLk6GJQsqaUBKTNV-1" parent="WIyWlLk6GJQsqaUBKTNV-0" />
        <mxCell id="wIX8_daclnW8jgaYg2AP-0" value="" style="rounded=0;whiteSpace=wrap;html=1;fillColor=#ffe6cc;strokeColor=#d79b00;" vertex="1" parent="WIyWlLk6GJQsqaUBKTNV-1">
          <mxGeometry x="594.5" y="380.5" width="290" height="570" as="geometry" />
        </mxCell>
        <mxCell id="wIX8_daclnW8jgaYg2AP-1" value="" style="rounded=0;whiteSpace=wrap;html=1;fillColor=#f5f5f5;strokeColor=#666666;fontColor=#333333;" vertex="1" parent="WIyWlLk6GJQsqaUBKTNV-1">
          <mxGeometry x="614.5" y="448" width="260" height="494" as="geometry" />
        </mxCell>
        <mxCell id="wIX8_daclnW8jgaYg2AP-2" style="edgeStyle=orthogonalEdgeStyle;rounded=0;orthogonalLoop=1;jettySize=auto;html=1;entryX=0.5;entryY=0;entryDx=0;entryDy=0;" edge="1" parent="WIyWlLk6GJQsqaUBKTNV-1" source="wIX8_daclnW8jgaYg2AP-3" target="wIX8_daclnW8jgaYg2AP-5">
          <mxGeometry relative="1" as="geometry" />
        </mxCell>
        <mxCell id="wIX8_daclnW8jgaYg2AP-3" value="Request next chunk" style="rounded=1;whiteSpace=wrap;html=1;fillColor=#dae8fc;strokeColor=#6c8ebf;" vertex="1" parent="WIyWlLk6GJQsqaUBKTNV-1">
          <mxGeometry x="900" y="573" width="120" height="60" as="geometry" />
        </mxCell>
        <mxCell id="wIX8_daclnW8jgaYg2AP-4" style="edgeStyle=orthogonalEdgeStyle;rounded=0;orthogonalLoop=1;jettySize=auto;html=1;entryX=0.5;entryY=0;entryDx=0;entryDy=0;" edge="1" parent="WIyWlLk6GJQsqaUBKTNV-1" source="wIX8_daclnW8jgaYg2AP-5" target="wIX8_daclnW8jgaYg2AP-7">
          <mxGeometry relative="1" as="geometry" />
        </mxCell>
        <mxCell id="wIX8_daclnW8jgaYg2AP-5" value="Create upper floor" style="rounded=1;whiteSpace=wrap;html=1;fillColor=#fff2cc;strokeColor=#d6b656;" vertex="1" parent="WIyWlLk6GJQsqaUBKTNV-1">
          <mxGeometry x="900" y="683" width="120" height="60" as="geometry" />
        </mxCell>
        <mxCell id="wIX8_daclnW8jgaYg2AP-6" style="edgeStyle=orthogonalEdgeStyle;rounded=0;orthogonalLoop=1;jettySize=auto;html=1;entryX=0.5;entryY=0;entryDx=0;entryDy=0;" edge="1" parent="WIyWlLk6GJQsqaUBKTNV-1" source="wIX8_daclnW8jgaYg2AP-7" target="wIX8_daclnW8jgaYg2AP-8">
          <mxGeometry relative="1" as="geometry" />
        </mxCell>
        <mxCell id="wIX8_daclnW8jgaYg2AP-7" value="Create lower floor" style="rounded=1;whiteSpace=wrap;html=1;fillColor=#fff2cc;strokeColor=#d6b656;" vertex="1" parent="WIyWlLk6GJQsqaUBKTNV-1">
          <mxGeometry x="900" y="813" width="120" height="60" as="geometry" />
        </mxCell>
        <mxCell id="wIX8_daclnW8jgaYg2AP-8" value="Return chunk data" style="rounded=1;whiteSpace=wrap;html=1;fillColor=#f8cecc;strokeColor=#b85450;" vertex="1" parent="WIyWlLk6GJQsqaUBKTNV-1">
          <mxGeometry x="900" y="933" width="120" height="60" as="geometry" />
        </mxCell>
        <mxCell id="wIX8_daclnW8jgaYg2AP-9" value="" style="edgeStyle=orthogonalEdgeStyle;rounded=0;orthogonalLoop=1;jettySize=auto;html=1;" edge="1" parent="WIyWlLk6GJQsqaUBKTNV-1" source="wIX8_daclnW8jgaYg2AP-10" target="wIX8_daclnW8jgaYg2AP-101">
          <mxGeometry relative="1" as="geometry" />
        </mxCell>
        <mxCell id="wIX8_daclnW8jgaYg2AP-10" value="Create floor" style="rounded=1;whiteSpace=wrap;html=1;fillColor=#fff2cc;strokeColor=#d6b656;" vertex="1" parent="WIyWlLk6GJQsqaUBKTNV-1">
          <mxGeometry x="624.5" y="170.5" width="120" height="60" as="geometry" />
        </mxCell>
        <mxCell id="wIX8_daclnW8jgaYg2AP-11" value="Loop through sections &lt;br&gt;(lower, upper)" style="rounded=1;whiteSpace=wrap;html=1;" vertex="1" parent="WIyWlLk6GJQsqaUBKTNV-1">
          <mxGeometry x="589.5" y="370.5" width="190" height="60" as="geometry" />
        </mxCell>
        <mxCell id="wIX8_daclnW8jgaYg2AP-12" value="Loop through lanes&lt;br&gt;(x axis: -1, 0, +1)" style="rounded=1;whiteSpace=wrap;html=1;" vertex="1" parent="WIyWlLk6GJQsqaUBKTNV-1">
          <mxGeometry x="604.5" y="442" width="190" height="60" as="geometry" />
        </mxCell>
        <mxCell id="wIX8_daclnW8jgaYg2AP-13" style="edgeStyle=orthogonalEdgeStyle;rounded=0;orthogonalLoop=1;jettySize=auto;html=1;exitX=0.5;exitY=1;exitDx=0;exitDy=0;entryX=0.5;entryY=0;entryDx=0;entryDy=0;" edge="1" parent="WIyWlLk6GJQsqaUBKTNV-1" source="wIX8_daclnW8jgaYg2AP-16" target="wIX8_daclnW8jgaYg2AP-19">
          <mxGeometry relative="1" as="geometry" />
        </mxCell>
        <mxCell id="wIX8_daclnW8jgaYg2AP-14" value="Yes" style="edgeLabel;html=1;align=center;verticalAlign=middle;resizable=0;points=[];" vertex="1" connectable="0" parent="wIX8_daclnW8jgaYg2AP-13">
          <mxGeometry x="-0.0167" y="-2" relative="1" as="geometry">
            <mxPoint x="2" as="offset" />
          </mxGeometry>
        </mxCell>
        <mxCell id="wIX8_daclnW8jgaYg2AP-15" style="edgeStyle=orthogonalEdgeStyle;rounded=0;orthogonalLoop=1;jettySize=auto;html=1;exitX=1;exitY=0.5;exitDx=0;exitDy=0;entryX=0;entryY=0.5;entryDx=0;entryDy=0;" edge="1" parent="WIyWlLk6GJQsqaUBKTNV-1" source="wIX8_daclnW8jgaYg2AP-16" target="wIX8_daclnW8jgaYg2AP-58">
          <mxGeometry relative="1" as="geometry" />
        </mxCell>
        <mxCell id="wIX8_daclnW8jgaYg2AP-16" value="Is lane empty?" style="rounded=0;whiteSpace=wrap;html=1;" vertex="1" parent="WIyWlLk6GJQsqaUBKTNV-1">
          <mxGeometry x="629.5" y="515" width="120" height="60" as="geometry" />
        </mxCell>
        <mxCell id="wIX8_daclnW8jgaYg2AP-18" style="edgeStyle=orthogonalEdgeStyle;rounded=0;orthogonalLoop=1;jettySize=auto;html=1;exitX=0.5;exitY=1;exitDx=0;exitDy=0;entryX=0.5;entryY=0;entryDx=0;entryDy=0;" edge="1" parent="WIyWlLk6GJQsqaUBKTNV-1" source="wIX8_daclnW8jgaYg2AP-19" target="wIX8_daclnW8jgaYg2AP-24">
          <mxGeometry relative="1" as="geometry" />
        </mxCell>
        <mxCell id="wIX8_daclnW8jgaYg2AP-19" value="Choose random feature ID" style="rounded=1;whiteSpace=wrap;html=1;" vertex="1" parent="WIyWlLk6GJQsqaUBKTNV-1">
          <mxGeometry x="629.5" y="635" width="120" height="60" as="geometry" />
        </mxCell>
        <mxCell id="wIX8_daclnW8jgaYg2AP-20" style="edgeStyle=orthogonalEdgeStyle;rounded=0;orthogonalLoop=1;jettySize=auto;html=1;exitX=0.5;exitY=1;exitDx=0;exitDy=0;entryX=0.5;entryY=0;entryDx=0;entryDy=0;" edge="1" parent="WIyWlLk6GJQsqaUBKTNV-1" source="wIX8_daclnW8jgaYg2AP-24" target="wIX8_daclnW8jgaYg2AP-26">
          <mxGeometry relative="1" as="geometry" />
        </mxCell>
        <mxCell id="wIX8_daclnW8jgaYg2AP-21" value="No" style="edgeLabel;html=1;align=center;verticalAlign=middle;resizable=0;points=[];" vertex="1" connectable="0" parent="wIX8_daclnW8jgaYg2AP-20">
          <mxGeometry x="-0.1556" y="2" relative="1" as="geometry">
            <mxPoint x="-2" y="2" as="offset" />
          </mxGeometry>
        </mxCell>
        <mxCell id="wIX8_daclnW8jgaYg2AP-22" style="edgeStyle=orthogonalEdgeStyle;rounded=0;orthogonalLoop=1;jettySize=auto;html=1;exitX=1;exitY=0.5;exitDx=0;exitDy=0;entryX=1;entryY=0.5;entryDx=0;entryDy=0;" edge="1" parent="WIyWlLk6GJQsqaUBKTNV-1" source="wIX8_daclnW8jgaYg2AP-24" target="wIX8_daclnW8jgaYg2AP-19">
          <mxGeometry relative="1" as="geometry">
            <Array as="points">
              <mxPoint x="789.5" y="785" />
              <mxPoint x="789.5" y="665" />
            </Array>
          </mxGeometry>
        </mxCell>
        <mxCell id="wIX8_daclnW8jgaYg2AP-23" value="Yes" style="edgeLabel;html=1;align=center;verticalAlign=middle;resizable=0;points=[];" vertex="1" connectable="0" parent="wIX8_daclnW8jgaYg2AP-22">
          <mxGeometry x="-0.0271" y="-1" relative="1" as="geometry">
            <mxPoint x="-561" y="-183" as="offset" />
          </mxGeometry>
        </mxCell>
        <mxCell id="wIX8_daclnW8jgaYg2AP-129" value="No" style="edgeLabel;html=1;align=center;verticalAlign=middle;resizable=0;points=[];" vertex="1" connectable="0" parent="wIX8_daclnW8jgaYg2AP-22">
          <mxGeometry x="-0.0271" y="-1" relative="1" as="geometry">
            <mxPoint x="-561" y="-58" as="offset" />
          </mxGeometry>
        </mxCell>
        <mxCell id="wIX8_daclnW8jgaYg2AP-24" value="Has feature been placed maximum amount allowed?" style="rounded=0;whiteSpace=wrap;html=1;" vertex="1" parent="WIyWlLk6GJQsqaUBKTNV-1">
          <mxGeometry x="629.5" y="755" width="120" height="60" as="geometry" />
        </mxCell>
        <mxCell id="wIX8_daclnW8jgaYg2AP-26" value="Create feature" style="rounded=1;whiteSpace=wrap;html=1;fillColor=#d5e8d4;strokeColor=#82b366;" vertex="1" parent="WIyWlLk6GJQsqaUBKTNV-1">
          <mxGeometry x="629.5" y="875" width="120" height="60" as="geometry" />
        </mxCell>
        <mxCell id="wIX8_daclnW8jgaYg2AP-27" style="edgeStyle=orthogonalEdgeStyle;rounded=0;orthogonalLoop=1;jettySize=auto;html=1;exitX=0.5;exitY=1;exitDx=0;exitDy=0;entryX=0.5;entryY=0;entryDx=0;entryDy=0;" edge="1" parent="WIyWlLk6GJQsqaUBKTNV-1" source="wIX8_daclnW8jgaYg2AP-28" target="wIX8_daclnW8jgaYg2AP-39">
          <mxGeometry relative="1" as="geometry" />
        </mxCell>
        <mxCell id="wIX8_daclnW8jgaYg2AP-28" value="Create block feature" style="rounded=1;whiteSpace=wrap;html=1;fillColor=#d5e8d4;strokeColor=#82b366;" vertex="1" parent="WIyWlLk6GJQsqaUBKTNV-1">
          <mxGeometry x="960" y="170.5" width="120" height="60" as="geometry" />
        </mxCell>
        <mxCell id="wIX8_daclnW8jgaYg2AP-29" style="edgeStyle=orthogonalEdgeStyle;rounded=0;orthogonalLoop=1;jettySize=auto;html=1;exitX=0.5;exitY=1;exitDx=0;exitDy=0;entryX=0.5;entryY=0;entryDx=0;entryDy=0;" edge="1" parent="WIyWlLk6GJQsqaUBKTNV-1" source="wIX8_daclnW8jgaYg2AP-30" target="wIX8_daclnW8jgaYg2AP-62">
          <mxGeometry relative="1" as="geometry" />
        </mxCell>
        <mxCell id="wIX8_daclnW8jgaYg2AP-30" value="Create jump feature" style="rounded=1;whiteSpace=wrap;html=1;fillColor=#d5e8d4;strokeColor=#82b366;" vertex="1" parent="WIyWlLk6GJQsqaUBKTNV-1">
          <mxGeometry x="1280" y="170.5" width="120" height="60" as="geometry" />
        </mxCell>
        <mxCell id="wIX8_daclnW8jgaYg2AP-31" style="edgeStyle=orthogonalEdgeStyle;rounded=0;orthogonalLoop=1;jettySize=auto;html=1;exitX=0.5;exitY=1;exitDx=0;exitDy=0;entryX=0.5;entryY=0;entryDx=0;entryDy=0;" edge="1" parent="WIyWlLk6GJQsqaUBKTNV-1" source="wIX8_daclnW8jgaYg2AP-32" target="wIX8_daclnW8jgaYg2AP-78">
          <mxGeometry relative="1" as="geometry" />
        </mxCell>
        <mxCell id="wIX8_daclnW8jgaYg2AP-32" value="Create swing feature" style="rounded=1;whiteSpace=wrap;html=1;fillColor=#d5e8d4;strokeColor=#82b366;" vertex="1" parent="WIyWlLk6GJQsqaUBKTNV-1">
          <mxGeometry x="1805" y="171" width="120" height="60" as="geometry" />
        </mxCell>
        <mxCell id="wIX8_daclnW8jgaYg2AP-33" style="edgeStyle=orthogonalEdgeStyle;rounded=0;orthogonalLoop=1;jettySize=auto;html=1;entryX=0.5;entryY=0;entryDx=0;entryDy=0;" edge="1" parent="WIyWlLk6GJQsqaUBKTNV-1" source="wIX8_daclnW8jgaYg2AP-34" target="wIX8_daclnW8jgaYg2AP-96">
          <mxGeometry relative="1" as="geometry" />
        </mxCell>
        <mxCell id="wIX8_daclnW8jgaYg2AP-34" value="Create empty feature" style="rounded=1;whiteSpace=wrap;html=1;fillColor=#d5e8d4;strokeColor=#82b366;" vertex="1" parent="WIyWlLk6GJQsqaUBKTNV-1">
          <mxGeometry x="1450" y="171.5" width="120" height="60" as="geometry" />
        </mxCell>
        <mxCell id="wIX8_daclnW8jgaYg2AP-35" style="edgeStyle=orthogonalEdgeStyle;rounded=0;orthogonalLoop=1;jettySize=auto;html=1;exitX=1;exitY=0.5;exitDx=0;exitDy=0;entryX=0.5;entryY=0;entryDx=0;entryDy=0;" edge="1" parent="WIyWlLk6GJQsqaUBKTNV-1" source="wIX8_daclnW8jgaYg2AP-39" target="wIX8_daclnW8jgaYg2AP-44">
          <mxGeometry relative="1" as="geometry" />
        </mxCell>
        <mxCell id="wIX8_daclnW8jgaYg2AP-36" value="No" style="edgeLabel;html=1;align=center;verticalAlign=middle;resizable=0;points=[];" vertex="1" connectable="0" parent="wIX8_daclnW8jgaYg2AP-35">
          <mxGeometry x="0.6228" y="-6" relative="1" as="geometry">
            <mxPoint x="6" y="4" as="offset" />
          </mxGeometry>
        </mxCell>
        <mxCell id="wIX8_daclnW8jgaYg2AP-37" style="edgeStyle=orthogonalEdgeStyle;rounded=0;orthogonalLoop=1;jettySize=auto;html=1;exitX=0.5;exitY=1;exitDx=0;exitDy=0;entryX=0.5;entryY=0;entryDx=0;entryDy=0;" edge="1" parent="WIyWlLk6GJQsqaUBKTNV-1" source="wIX8_daclnW8jgaYg2AP-39" target="wIX8_daclnW8jgaYg2AP-42">
          <mxGeometry relative="1" as="geometry" />
        </mxCell>
        <mxCell id="wIX8_daclnW8jgaYg2AP-38" value="Yes" style="edgeLabel;html=1;align=center;verticalAlign=middle;resizable=0;points=[];" vertex="1" connectable="0" parent="wIX8_daclnW8jgaYg2AP-37">
          <mxGeometry x="0.1833" y="1" relative="1" as="geometry">
            <mxPoint x="-1" y="-6" as="offset" />
          </mxGeometry>
        </mxCell>
        <mxCell id="wIX8_daclnW8jgaYg2AP-39" value="First block feature &lt;br&gt;on floor?" style="rounded=0;whiteSpace=wrap;html=1;" vertex="1" parent="WIyWlLk6GJQsqaUBKTNV-1">
          <mxGeometry x="950" y="270.5" width="140" height="60" as="geometry" />
        </mxCell>
        <mxCell id="wIX8_daclnW8jgaYg2AP-41" style="edgeStyle=orthogonalEdgeStyle;rounded=0;orthogonalLoop=1;jettySize=auto;html=1;exitX=0.5;exitY=1;exitDx=0;exitDy=0;" edge="1" parent="WIyWlLk6GJQsqaUBKTNV-1" source="wIX8_daclnW8jgaYg2AP-42" target="wIX8_daclnW8jgaYg2AP-53">
          <mxGeometry relative="1" as="geometry" />
        </mxCell>
        <mxCell id="wIX8_daclnW8jgaYg2AP-42" value="Choose random hazard&lt;br&gt;(snake or wall)" style="rounded=1;whiteSpace=wrap;html=1;" vertex="1" parent="WIyWlLk6GJQsqaUBKTNV-1">
          <mxGeometry x="950" y="376.5" width="140" height="60" as="geometry" />
        </mxCell>
        <mxCell id="wIX8_daclnW8jgaYg2AP-43" style="edgeStyle=orthogonalEdgeStyle;rounded=0;orthogonalLoop=1;jettySize=auto;html=1;exitX=0.5;exitY=1;exitDx=0;exitDy=0;entryX=1;entryY=0.5;entryDx=0;entryDy=0;" edge="1" parent="WIyWlLk6GJQsqaUBKTNV-1" source="wIX8_daclnW8jgaYg2AP-44" target="wIX8_daclnW8jgaYg2AP-53">
          <mxGeometry relative="1" as="geometry" />
        </mxCell>
        <mxCell id="wIX8_daclnW8jgaYg2AP-44" value="Choose hazard not already chosen" style="rounded=1;whiteSpace=wrap;html=1;" vertex="1" parent="WIyWlLk6GJQsqaUBKTNV-1">
          <mxGeometry x="1110" y="376.5" width="120" height="60" as="geometry" />
        </mxCell>
        <mxCell id="wIX8_daclnW8jgaYg2AP-45" style="edgeStyle=orthogonalEdgeStyle;rounded=0;orthogonalLoop=1;jettySize=auto;html=1;exitX=0.5;exitY=1;exitDx=0;exitDy=0;entryX=0;entryY=0.5;entryDx=0;entryDy=0;" edge="1" parent="WIyWlLk6GJQsqaUBKTNV-1" source="wIX8_daclnW8jgaYg2AP-53" target="wIX8_daclnW8jgaYg2AP-54">
          <mxGeometry relative="1" as="geometry" />
        </mxCell>
        <mxCell id="wIX8_daclnW8jgaYg2AP-46" value="40%" style="edgeLabel;html=1;align=center;verticalAlign=middle;resizable=0;points=[];" vertex="1" connectable="0" parent="wIX8_daclnW8jgaYg2AP-45">
          <mxGeometry x="0.0057" y="-1" relative="1" as="geometry">
            <mxPoint x="23" y="-1" as="offset" />
          </mxGeometry>
        </mxCell>
        <mxCell id="wIX8_daclnW8jgaYg2AP-47" style="edgeStyle=orthogonalEdgeStyle;rounded=0;orthogonalLoop=1;jettySize=auto;html=1;exitX=0.5;exitY=1;exitDx=0;exitDy=0;entryX=0;entryY=0.5;entryDx=0;entryDy=0;" edge="1" parent="WIyWlLk6GJQsqaUBKTNV-1" source="wIX8_daclnW8jgaYg2AP-53" target="wIX8_daclnW8jgaYg2AP-55">
          <mxGeometry relative="1" as="geometry" />
        </mxCell>
        <mxCell id="wIX8_daclnW8jgaYg2AP-48" value="40%" style="edgeLabel;html=1;align=center;verticalAlign=middle;resizable=0;points=[];" vertex="1" connectable="0" parent="wIX8_daclnW8jgaYg2AP-47">
          <mxGeometry x="0.5571" y="1" relative="1" as="geometry">
            <mxPoint x="12" y="1" as="offset" />
          </mxGeometry>
        </mxCell>
        <mxCell id="wIX8_daclnW8jgaYg2AP-49" style="edgeStyle=orthogonalEdgeStyle;rounded=0;orthogonalLoop=1;jettySize=auto;html=1;exitX=0.5;exitY=1;exitDx=0;exitDy=0;entryX=0;entryY=0.5;entryDx=0;entryDy=0;" edge="1" parent="WIyWlLk6GJQsqaUBKTNV-1" source="wIX8_daclnW8jgaYg2AP-53" target="wIX8_daclnW8jgaYg2AP-56">
          <mxGeometry relative="1" as="geometry" />
        </mxCell>
        <mxCell id="wIX8_daclnW8jgaYg2AP-50" value="20%" style="edgeLabel;html=1;align=center;verticalAlign=middle;resizable=0;points=[];" vertex="1" connectable="0" parent="wIX8_daclnW8jgaYg2AP-49">
          <mxGeometry x="0.7253" relative="1" as="geometry">
            <mxPoint x="6" as="offset" />
          </mxGeometry>
        </mxCell>
        <mxCell id="wIX8_daclnW8jgaYg2AP-51" style="edgeStyle=orthogonalEdgeStyle;rounded=0;orthogonalLoop=1;jettySize=auto;html=1;exitX=0.5;exitY=1;exitDx=0;exitDy=0;entryX=0;entryY=0.5;entryDx=0;entryDy=0;" edge="1" parent="WIyWlLk6GJQsqaUBKTNV-1" source="wIX8_daclnW8jgaYg2AP-53" target="wIX8_daclnW8jgaYg2AP-57">
          <mxGeometry relative="1" as="geometry" />
        </mxCell>
        <mxCell id="wIX8_daclnW8jgaYg2AP-52" value="Special" style="edgeLabel;html=1;align=center;verticalAlign=middle;resizable=0;points=[];" vertex="1" connectable="0" parent="wIX8_daclnW8jgaYg2AP-51">
          <mxGeometry x="0.6935" y="-3" relative="1" as="geometry">
            <mxPoint x="21" y="-3" as="offset" />
          </mxGeometry>
        </mxCell>
        <mxCell id="wIX8_daclnW8jgaYg2AP-53" value="Choose random &lt;br&gt;filler theme" style="rounded=1;whiteSpace=wrap;html=1;" vertex="1" parent="WIyWlLk6GJQsqaUBKTNV-1">
          <mxGeometry x="950" y="480.5" width="140" height="60" as="geometry" />
        </mxCell>
        <mxCell id="wIX8_daclnW8jgaYg2AP-54" value="Coin theme" style="rounded=1;whiteSpace=wrap;html=1;" vertex="1" parent="WIyWlLk6GJQsqaUBKTNV-1">
          <mxGeometry x="1080" y="560.5" width="120" height="60" as="geometry" />
        </mxCell>
        <mxCell id="wIX8_daclnW8jgaYg2AP-55" value="Pitfall theme" style="rounded=1;whiteSpace=wrap;html=1;" vertex="1" parent="WIyWlLk6GJQsqaUBKTNV-1">
          <mxGeometry x="1080" y="630.5" width="120" height="60" as="geometry" />
        </mxCell>
        <mxCell id="wIX8_daclnW8jgaYg2AP-56" value="Empty theme" style="rounded=1;whiteSpace=wrap;html=1;" vertex="1" parent="WIyWlLk6GJQsqaUBKTNV-1">
          <mxGeometry x="1080" y="700.5" width="120" height="60" as="geometry" />
        </mxCell>
        <mxCell id="wIX8_daclnW8jgaYg2AP-57" value="Drop theme" style="rounded=1;whiteSpace=wrap;html=1;" vertex="1" parent="WIyWlLk6GJQsqaUBKTNV-1">
          <mxGeometry x="1080" y="770.5" width="120" height="60" as="geometry" />
        </mxCell>
        <mxCell id="wIX8_daclnW8jgaYg2AP-58" value="Skip lane" style="rounded=1;whiteSpace=wrap;html=1;" vertex="1" parent="WIyWlLk6GJQsqaUBKTNV-1">
          <mxGeometry x="789.5" y="515" width="70" height="60" as="geometry" />
        </mxCell>
        <mxCell id="wIX8_daclnW8jgaYg2AP-59" style="edgeStyle=orthogonalEdgeStyle;rounded=0;orthogonalLoop=1;jettySize=auto;html=1;exitX=0.5;exitY=1;exitDx=0;exitDy=0;entryX=0.5;entryY=0;entryDx=0;entryDy=0;" edge="1" parent="WIyWlLk6GJQsqaUBKTNV-1" source="wIX8_daclnW8jgaYg2AP-60" target="wIX8_daclnW8jgaYg2AP-64">
          <mxGeometry relative="1" as="geometry" />
        </mxCell>
        <mxCell id="wIX8_daclnW8jgaYg2AP-60" value="Add pitfalls equal to &lt;br&gt;1 less than jump distance" style="rounded=1;whiteSpace=wrap;html=1;" vertex="1" parent="WIyWlLk6GJQsqaUBKTNV-1">
          <mxGeometry x="1260" y="373.5" width="160" height="60" as="geometry" />
        </mxCell>
        <mxCell id="wIX8_daclnW8jgaYg2AP-61" style="edgeStyle=orthogonalEdgeStyle;rounded=0;orthogonalLoop=1;jettySize=auto;html=1;exitX=0.5;exitY=1;exitDx=0;exitDy=0;entryX=0.5;entryY=0;entryDx=0;entryDy=0;" edge="1" parent="WIyWlLk6GJQsqaUBKTNV-1" source="wIX8_daclnW8jgaYg2AP-62" target="wIX8_daclnW8jgaYg2AP-60">
          <mxGeometry relative="1" as="geometry" />
        </mxCell>
        <mxCell id="wIX8_daclnW8jgaYg2AP-62" value="Add empty start space" style="rounded=1;whiteSpace=wrap;html=1;" vertex="1" parent="WIyWlLk6GJQsqaUBKTNV-1">
          <mxGeometry x="1260" y="270.5" width="160" height="60" as="geometry" />
        </mxCell>
        <mxCell id="wIX8_daclnW8jgaYg2AP-63" style="edgeStyle=orthogonalEdgeStyle;rounded=0;orthogonalLoop=1;jettySize=auto;html=1;exitX=0.5;exitY=1;exitDx=0;exitDy=0;entryX=0.5;entryY=0;entryDx=0;entryDy=0;" edge="1" parent="WIyWlLk6GJQsqaUBKTNV-1" source="wIX8_daclnW8jgaYg2AP-64" target="wIX8_daclnW8jgaYg2AP-65">
          <mxGeometry relative="1" as="geometry" />
        </mxCell>
        <mxCell id="wIX8_daclnW8jgaYg2AP-64" value="Add empty landing space" style="rounded=1;whiteSpace=wrap;html=1;" vertex="1" parent="WIyWlLk6GJQsqaUBKTNV-1">
          <mxGeometry x="1260" y="480.5" width="160" height="60" as="geometry" />
        </mxCell>
        <mxCell id="wIX8_daclnW8jgaYg2AP-65" value="Choose random coin mode" style="rounded=1;whiteSpace=wrap;html=1;" vertex="1" parent="WIyWlLk6GJQsqaUBKTNV-1">
          <mxGeometry x="1260" y="580.5" width="160" height="60" as="geometry" />
        </mxCell>
        <mxCell id="wIX8_daclnW8jgaYg2AP-66" style="edgeStyle=orthogonalEdgeStyle;rounded=0;orthogonalLoop=1;jettySize=auto;html=1;exitX=0.5;exitY=1;exitDx=0;exitDy=0;entryX=0;entryY=0.5;entryDx=0;entryDy=0;" edge="1" parent="WIyWlLk6GJQsqaUBKTNV-1" source="wIX8_daclnW8jgaYg2AP-65" target="wIX8_daclnW8jgaYg2AP-72">
          <mxGeometry relative="1" as="geometry">
            <mxPoint x="1310" y="640.5" as="sourcePoint" />
          </mxGeometry>
        </mxCell>
        <mxCell id="wIX8_daclnW8jgaYg2AP-67" value="50%" style="edgeLabel;html=1;align=center;verticalAlign=middle;resizable=0;points=[];" vertex="1" connectable="0" parent="wIX8_daclnW8jgaYg2AP-66">
          <mxGeometry x="0.0057" y="-1" relative="1" as="geometry">
            <mxPoint x="25" y="-1" as="offset" />
          </mxGeometry>
        </mxCell>
        <mxCell id="wIX8_daclnW8jgaYg2AP-68" style="edgeStyle=orthogonalEdgeStyle;rounded=0;orthogonalLoop=1;jettySize=auto;html=1;exitX=0.5;exitY=1;exitDx=0;exitDy=0;entryX=0;entryY=0.5;entryDx=0;entryDy=0;" edge="1" parent="WIyWlLk6GJQsqaUBKTNV-1" source="wIX8_daclnW8jgaYg2AP-65" target="wIX8_daclnW8jgaYg2AP-73">
          <mxGeometry relative="1" as="geometry">
            <mxPoint x="1310" y="640.5" as="sourcePoint" />
          </mxGeometry>
        </mxCell>
        <mxCell id="wIX8_daclnW8jgaYg2AP-69" value="30%" style="edgeLabel;html=1;align=center;verticalAlign=middle;resizable=0;points=[];" vertex="1" connectable="0" parent="wIX8_daclnW8jgaYg2AP-68">
          <mxGeometry x="0.5571" y="1" relative="1" as="geometry">
            <mxPoint x="10" y="1" as="offset" />
          </mxGeometry>
        </mxCell>
        <mxCell id="wIX8_daclnW8jgaYg2AP-70" style="edgeStyle=orthogonalEdgeStyle;rounded=0;orthogonalLoop=1;jettySize=auto;html=1;exitX=0.5;exitY=1;exitDx=0;exitDy=0;entryX=0;entryY=0.5;entryDx=0;entryDy=0;" edge="1" parent="WIyWlLk6GJQsqaUBKTNV-1" source="wIX8_daclnW8jgaYg2AP-65" target="wIX8_daclnW8jgaYg2AP-74">
          <mxGeometry relative="1" as="geometry">
            <mxPoint x="1310" y="640.5" as="sourcePoint" />
          </mxGeometry>
        </mxCell>
        <mxCell id="wIX8_daclnW8jgaYg2AP-71" value="20%" style="edgeLabel;html=1;align=center;verticalAlign=middle;resizable=0;points=[];" vertex="1" connectable="0" parent="wIX8_daclnW8jgaYg2AP-70">
          <mxGeometry x="0.7253" relative="1" as="geometry">
            <mxPoint x="4" as="offset" />
          </mxGeometry>
        </mxCell>
        <mxCell id="wIX8_daclnW8jgaYg2AP-72" value="1 layer" style="rounded=1;whiteSpace=wrap;html=1;" vertex="1" parent="WIyWlLk6GJQsqaUBKTNV-1">
          <mxGeometry x="1400" y="660.5" width="120" height="60" as="geometry" />
        </mxCell>
        <mxCell id="wIX8_daclnW8jgaYg2AP-73" value="2 layers" style="rounded=1;whiteSpace=wrap;html=1;" vertex="1" parent="WIyWlLk6GJQsqaUBKTNV-1">
          <mxGeometry x="1400" y="730.5" width="120" height="60" as="geometry" />
        </mxCell>
        <mxCell id="wIX8_daclnW8jgaYg2AP-74" value="None" style="rounded=1;whiteSpace=wrap;html=1;" vertex="1" parent="WIyWlLk6GJQsqaUBKTNV-1">
          <mxGeometry x="1400" y="800.5" width="120" height="60" as="geometry" />
        </mxCell>
        <mxCell id="wIX8_daclnW8jgaYg2AP-75" style="edgeStyle=orthogonalEdgeStyle;rounded=0;orthogonalLoop=1;jettySize=auto;html=1;exitX=0.5;exitY=1;exitDx=0;exitDy=0;entryX=0.5;entryY=0;entryDx=0;entryDy=0;" edge="1" parent="WIyWlLk6GJQsqaUBKTNV-1" source="wIX8_daclnW8jgaYg2AP-76" target="wIX8_daclnW8jgaYg2AP-80">
          <mxGeometry relative="1" as="geometry" />
        </mxCell>
        <mxCell id="wIX8_daclnW8jgaYg2AP-76" value="Add additional pitfalls equal to 1 less than swing distance" style="rounded=1;whiteSpace=wrap;html=1;" vertex="1" parent="WIyWlLk6GJQsqaUBKTNV-1">
          <mxGeometry x="1780" y="371.5" width="170" height="60" as="geometry" />
        </mxCell>
        <mxCell id="wIX8_daclnW8jgaYg2AP-77" style="edgeStyle=orthogonalEdgeStyle;rounded=0;orthogonalLoop=1;jettySize=auto;html=1;exitX=0.5;exitY=1;exitDx=0;exitDy=0;entryX=0.5;entryY=0;entryDx=0;entryDy=0;" edge="1" parent="WIyWlLk6GJQsqaUBKTNV-1" source="wIX8_daclnW8jgaYg2AP-78" target="wIX8_daclnW8jgaYg2AP-76">
          <mxGeometry relative="1" as="geometry" />
        </mxCell>
        <mxCell id="wIX8_daclnW8jgaYg2AP-78" value="Add pitfall at start space" style="rounded=1;whiteSpace=wrap;html=1;" vertex="1" parent="WIyWlLk6GJQsqaUBKTNV-1">
          <mxGeometry x="1780" y="271" width="170" height="60" as="geometry" />
        </mxCell>
        <mxCell id="wIX8_daclnW8jgaYg2AP-79" style="edgeStyle=orthogonalEdgeStyle;rounded=0;orthogonalLoop=1;jettySize=auto;html=1;exitX=0.5;exitY=1;exitDx=0;exitDy=0;entryX=0.5;entryY=0;entryDx=0;entryDy=0;" edge="1" parent="WIyWlLk6GJQsqaUBKTNV-1" source="wIX8_daclnW8jgaYg2AP-80" target="wIX8_daclnW8jgaYg2AP-82">
          <mxGeometry relative="1" as="geometry" />
        </mxCell>
        <mxCell id="wIX8_daclnW8jgaYg2AP-80" value="Add empty landing space" style="rounded=1;whiteSpace=wrap;html=1;" vertex="1" parent="WIyWlLk6GJQsqaUBKTNV-1">
          <mxGeometry x="1780" y="473" width="170" height="60" as="geometry" />
        </mxCell>
        <mxCell id="wIX8_daclnW8jgaYg2AP-81" value="" style="edgeStyle=orthogonalEdgeStyle;rounded=0;orthogonalLoop=1;jettySize=auto;html=1;" edge="1" parent="WIyWlLk6GJQsqaUBKTNV-1" source="wIX8_daclnW8jgaYg2AP-82" target="wIX8_daclnW8jgaYg2AP-87">
          <mxGeometry relative="1" as="geometry" />
        </mxCell>
        <mxCell id="wIX8_daclnW8jgaYg2AP-82" value="Add 3 layers of coins over additional pitfalls" style="rounded=1;whiteSpace=wrap;html=1;" vertex="1" parent="WIyWlLk6GJQsqaUBKTNV-1">
          <mxGeometry x="1780" y="573" width="170" height="60" as="geometry" />
        </mxCell>
        <mxCell id="wIX8_daclnW8jgaYg2AP-83" style="edgeStyle=orthogonalEdgeStyle;rounded=0;orthogonalLoop=1;jettySize=auto;html=1;exitX=0;exitY=0.5;exitDx=0;exitDy=0;entryX=0.5;entryY=0;entryDx=0;entryDy=0;" edge="1" parent="WIyWlLk6GJQsqaUBKTNV-1" source="wIX8_daclnW8jgaYg2AP-87" target="wIX8_daclnW8jgaYg2AP-89">
          <mxGeometry relative="1" as="geometry" />
        </mxCell>
        <mxCell id="wIX8_daclnW8jgaYg2AP-84" value="Yes" style="edgeLabel;html=1;align=center;verticalAlign=middle;resizable=0;points=[];" vertex="1" connectable="0" parent="wIX8_daclnW8jgaYg2AP-83">
          <mxGeometry x="-0.4" y="1" relative="1" as="geometry">
            <mxPoint x="8" y="-1" as="offset" />
          </mxGeometry>
        </mxCell>
        <mxCell id="wIX8_daclnW8jgaYg2AP-85" style="edgeStyle=orthogonalEdgeStyle;rounded=0;orthogonalLoop=1;jettySize=auto;html=1;exitX=1;exitY=0.5;exitDx=0;exitDy=0;entryX=0.5;entryY=0;entryDx=0;entryDy=0;" edge="1" parent="WIyWlLk6GJQsqaUBKTNV-1" source="wIX8_daclnW8jgaYg2AP-87" target="wIX8_daclnW8jgaYg2AP-111">
          <mxGeometry relative="1" as="geometry" />
        </mxCell>
        <mxCell id="wIX8_daclnW8jgaYg2AP-86" value="No" style="edgeLabel;html=1;align=center;verticalAlign=middle;resizable=0;points=[];" vertex="1" connectable="0" parent="wIX8_daclnW8jgaYg2AP-85">
          <mxGeometry x="-0.5275" relative="1" as="geometry">
            <mxPoint x="-7" as="offset" />
          </mxGeometry>
        </mxCell>
        <mxCell id="wIX8_daclnW8jgaYg2AP-87" value="Is there more than 1 swing feature on the chunk?" style="rounded=0;whiteSpace=wrap;html=1;" vertex="1" parent="WIyWlLk6GJQsqaUBKTNV-1">
          <mxGeometry x="1780" y="670" width="170" height="60" as="geometry" />
        </mxCell>
        <mxCell id="wIX8_daclnW8jgaYg2AP-89" value="Possibly add another rope" style="rounded=1;whiteSpace=wrap;html=1;" vertex="1" parent="WIyWlLk6GJQsqaUBKTNV-1">
          <mxGeometry x="1640" y="760" width="170" height="60" as="geometry" />
        </mxCell>
        <mxCell id="wIX8_daclnW8jgaYg2AP-90" style="edgeStyle=orthogonalEdgeStyle;rounded=0;orthogonalLoop=1;jettySize=auto;html=1;exitX=0.5;exitY=1;exitDx=0;exitDy=0;entryX=0;entryY=0.5;entryDx=0;entryDy=0;" edge="1" parent="WIyWlLk6GJQsqaUBKTNV-1" source="wIX8_daclnW8jgaYg2AP-89" target="wIX8_daclnW8jgaYg2AP-94">
          <mxGeometry relative="1" as="geometry">
            <mxPoint x="1690" y="828" as="sourcePoint" />
          </mxGeometry>
        </mxCell>
        <mxCell id="wIX8_daclnW8jgaYg2AP-91" value="20%" style="edgeLabel;html=1;align=center;verticalAlign=middle;resizable=0;points=[];" vertex="1" connectable="0" parent="wIX8_daclnW8jgaYg2AP-90">
          <mxGeometry x="0.0057" y="-1" relative="1" as="geometry">
            <mxPoint x="25" y="-1" as="offset" />
          </mxGeometry>
        </mxCell>
        <mxCell id="wIX8_daclnW8jgaYg2AP-92" style="edgeStyle=orthogonalEdgeStyle;rounded=0;orthogonalLoop=1;jettySize=auto;html=1;exitX=0.5;exitY=1;exitDx=0;exitDy=0;entryX=0;entryY=0.5;entryDx=0;entryDy=0;" edge="1" parent="WIyWlLk6GJQsqaUBKTNV-1" source="wIX8_daclnW8jgaYg2AP-89" target="wIX8_daclnW8jgaYg2AP-95">
          <mxGeometry relative="1" as="geometry">
            <mxPoint x="1690" y="828" as="sourcePoint" />
          </mxGeometry>
        </mxCell>
        <mxCell id="wIX8_daclnW8jgaYg2AP-93" value="80%" style="edgeLabel;html=1;align=center;verticalAlign=middle;resizable=0;points=[];" vertex="1" connectable="0" parent="wIX8_daclnW8jgaYg2AP-92">
          <mxGeometry x="0.5571" y="1" relative="1" as="geometry">
            <mxPoint x="10" y="1" as="offset" />
          </mxGeometry>
        </mxCell>
        <mxCell id="wIX8_daclnW8jgaYg2AP-94" value="Add rope above a different start space of 1 swing feature" style="rounded=1;whiteSpace=wrap;html=1;" vertex="1" parent="WIyWlLk6GJQsqaUBKTNV-1">
          <mxGeometry x="1780" y="835" width="120" height="60" as="geometry" />
        </mxCell>
        <mxCell id="wIX8_daclnW8jgaYg2AP-95" value="Do not add &lt;br&gt;additional ropes" style="rounded=1;whiteSpace=wrap;html=1;" vertex="1" parent="WIyWlLk6GJQsqaUBKTNV-1">
          <mxGeometry x="1780" y="905" width="120" height="60" as="geometry" />
        </mxCell>
        <mxCell id="wIX8_daclnW8jgaYg2AP-96" value="Add nothing" style="rounded=1;whiteSpace=wrap;html=1;" vertex="1" parent="WIyWlLk6GJQsqaUBKTNV-1">
          <mxGeometry x="1460" y="271.5" width="100" height="60" as="geometry" />
        </mxCell>
        <mxCell id="wIX8_daclnW8jgaYg2AP-97" style="edgeStyle=orthogonalEdgeStyle;rounded=0;orthogonalLoop=1;jettySize=auto;html=1;exitX=0.5;exitY=1;exitDx=0;exitDy=0;entryX=0.5;entryY=0;entryDx=0;entryDy=0;" edge="1" parent="WIyWlLk6GJQsqaUBKTNV-1" source="wIX8_daclnW8jgaYg2AP-101" target="wIX8_daclnW8jgaYg2AP-11">
          <mxGeometry relative="1" as="geometry" />
        </mxCell>
        <mxCell id="wIX8_daclnW8jgaYg2AP-98" value="No" style="edgeLabel;html=1;align=center;verticalAlign=middle;resizable=0;points=[];" vertex="1" connectable="0" parent="wIX8_daclnW8jgaYg2AP-97">
          <mxGeometry x="-0.0123" y="2" relative="1" as="geometry">
            <mxPoint x="-2" y="-9" as="offset" />
          </mxGeometry>
        </mxCell>
        <mxCell id="wIX8_daclnW8jgaYg2AP-99" style="edgeStyle=orthogonalEdgeStyle;rounded=0;orthogonalLoop=1;jettySize=auto;html=1;exitX=1;exitY=0.5;exitDx=0;exitDy=0;entryX=0;entryY=0.5;entryDx=0;entryDy=0;" edge="1" parent="WIyWlLk6GJQsqaUBKTNV-1" source="wIX8_daclnW8jgaYg2AP-101" target="wIX8_daclnW8jgaYg2AP-110">
          <mxGeometry relative="1" as="geometry" />
        </mxCell>
        <mxCell id="wIX8_daclnW8jgaYg2AP-100" value="Yes" style="edgeLabel;html=1;align=center;verticalAlign=middle;resizable=0;points=[];" vertex="1" connectable="0" parent="wIX8_daclnW8jgaYg2AP-99">
          <mxGeometry x="-0.2624" y="-2" relative="1" as="geometry">
            <mxPoint y="-2" as="offset" />
          </mxGeometry>
        </mxCell>
        <mxCell id="wIX8_daclnW8jgaYg2AP-101" value="Is a chasm queued?" style="rounded=0;whiteSpace=wrap;html=1;" vertex="1" parent="WIyWlLk6GJQsqaUBKTNV-1">
          <mxGeometry x="624.5" y="270" width="120" height="60" as="geometry" />
        </mxCell>
        <mxCell id="wIX8_daclnW8jgaYg2AP-103" value="" style="edgeStyle=orthogonalEdgeStyle;rounded=0;orthogonalLoop=1;jettySize=auto;html=1;" edge="1" parent="WIyWlLk6GJQsqaUBKTNV-1" source="wIX8_daclnW8jgaYg2AP-104" target="wIX8_daclnW8jgaYg2AP-106">
          <mxGeometry relative="1" as="geometry" />
        </mxCell>
        <mxCell id="wIX8_daclnW8jgaYg2AP-104" value="Create chasm feature" style="rounded=1;whiteSpace=wrap;html=1;fillColor=#e1d5e7;strokeColor=#9673a6;" vertex="1" parent="WIyWlLk6GJQsqaUBKTNV-1">
          <mxGeometry x="1610" y="170.5" width="135" height="60" as="geometry" />
        </mxCell>
        <mxCell id="wIX8_daclnW8jgaYg2AP-105" value="" style="edgeStyle=orthogonalEdgeStyle;rounded=0;orthogonalLoop=1;jettySize=auto;html=1;" edge="1" parent="WIyWlLk6GJQsqaUBKTNV-1" source="wIX8_daclnW8jgaYg2AP-106" target="wIX8_daclnW8jgaYg2AP-108">
          <mxGeometry relative="1" as="geometry" />
        </mxCell>
        <mxCell id="wIX8_daclnW8jgaYg2AP-106" value="Create swing feature&lt;br&gt;in lower Lane 1" style="rounded=1;whiteSpace=wrap;html=1;fillColor=#d5e8d4;strokeColor=#82b366;" vertex="1" parent="WIyWlLk6GJQsqaUBKTNV-1">
          <mxGeometry x="1617.5" y="270.5" width="120" height="60" as="geometry" />
        </mxCell>
        <mxCell id="wIX8_daclnW8jgaYg2AP-107" value="" style="edgeStyle=orthogonalEdgeStyle;rounded=0;orthogonalLoop=1;jettySize=auto;html=1;" edge="1" parent="WIyWlLk6GJQsqaUBKTNV-1" source="wIX8_daclnW8jgaYg2AP-108" target="wIX8_daclnW8jgaYg2AP-109">
          <mxGeometry relative="1" as="geometry" />
        </mxCell>
        <mxCell id="wIX8_daclnW8jgaYg2AP-108" value="Create swing feature&lt;br&gt;in lower Lane 2" style="rounded=1;whiteSpace=wrap;html=1;fillColor=#d5e8d4;strokeColor=#82b366;" vertex="1" parent="WIyWlLk6GJQsqaUBKTNV-1">
          <mxGeometry x="1617.5" y="371" width="120" height="60" as="geometry" />
        </mxCell>
        <mxCell id="wIX8_daclnW8jgaYg2AP-109" value="Create swing feature&lt;br&gt;in lower Lane 3" style="rounded=1;whiteSpace=wrap;html=1;fillColor=#d5e8d4;strokeColor=#82b366;" vertex="1" parent="WIyWlLk6GJQsqaUBKTNV-1">
          <mxGeometry x="1617.5" y="471" width="120" height="60" as="geometry" />
        </mxCell>
        <mxCell id="wIX8_daclnW8jgaYg2AP-110" value="Create chasm &lt;br&gt;feature" style="rounded=1;whiteSpace=wrap;html=1;fillColor=#e1d5e7;strokeColor=#9673a6;" vertex="1" parent="WIyWlLk6GJQsqaUBKTNV-1">
          <mxGeometry x="791.5" y="270" width="93" height="60" as="geometry" />
        </mxCell>
        <mxCell id="wIX8_daclnW8jgaYg2AP-111" value="Add rope above start space" style="rounded=1;whiteSpace=wrap;html=1;" vertex="1" parent="WIyWlLk6GJQsqaUBKTNV-1">
          <mxGeometry x="1920" y="760" width="170" height="60" as="geometry" />
        </mxCell>
        <mxCell id="wIX8_daclnW8jgaYg2AP-113" style="edgeStyle=orthogonalEdgeStyle;shape=connector;rounded=0;orthogonalLoop=1;jettySize=auto;html=1;labelBackgroundColor=default;strokeColor=default;align=center;verticalAlign=middle;fontFamily=Helvetica;fontSize=11;fontColor=default;endArrow=classic;" edge="1" parent="WIyWlLk6GJQsqaUBKTNV-1" source="wIX8_daclnW8jgaYg2AP-112" target="wIX8_daclnW8jgaYg2AP-114">
          <mxGeometry relative="1" as="geometry">
            <mxPoint x="280" y="90" as="targetPoint" />
          </mxGeometry>
        </mxCell>
        <mxCell id="wIX8_daclnW8jgaYg2AP-112" value="Game starts" style="rounded=1;whiteSpace=wrap;html=1;fillColor=#e51400;strokeColor=#B20000;fontColor=#ffffff;" vertex="1" parent="WIyWlLk6GJQsqaUBKTNV-1">
          <mxGeometry x="20" y="60" width="120" height="60" as="geometry" />
        </mxCell>
        <mxCell id="wIX8_daclnW8jgaYg2AP-116" style="edgeStyle=orthogonalEdgeStyle;shape=connector;rounded=0;orthogonalLoop=1;jettySize=auto;html=1;labelBackgroundColor=default;strokeColor=default;align=center;verticalAlign=middle;fontFamily=Helvetica;fontSize=11;fontColor=default;endArrow=classic;" edge="1" parent="WIyWlLk6GJQsqaUBKTNV-1" source="wIX8_daclnW8jgaYg2AP-114" target="wIX8_daclnW8jgaYg2AP-115">
          <mxGeometry relative="1" as="geometry" />
        </mxCell>
        <mxCell id="wIX8_daclnW8jgaYg2AP-114" value="Menu gets created" style="rounded=1;whiteSpace=wrap;html=1;fillColor=#dae8fc;strokeColor=#6c8ebf;" vertex="1" parent="WIyWlLk6GJQsqaUBKTNV-1">
          <mxGeometry x="280" y="60" width="120" height="60" as="geometry" />
        </mxCell>
        <mxCell id="wIX8_daclnW8jgaYg2AP-121" style="edgeStyle=orthogonalEdgeStyle;shape=connector;rounded=0;orthogonalLoop=1;jettySize=auto;html=1;labelBackgroundColor=default;strokeColor=default;align=center;verticalAlign=middle;fontFamily=Helvetica;fontSize=11;fontColor=default;endArrow=classic;" edge="1" parent="WIyWlLk6GJQsqaUBKTNV-1" source="wIX8_daclnW8jgaYg2AP-115" target="wIX8_daclnW8jgaYg2AP-120">
          <mxGeometry relative="1" as="geometry" />
        </mxCell>
        <mxCell id="wIX8_daclnW8jgaYg2AP-115" value="Create the three difficulties and endless" style="rounded=1;whiteSpace=wrap;html=1;fillColor=#fff2cc;strokeColor=#d6b656;" vertex="1" parent="WIyWlLk6GJQsqaUBKTNV-1">
          <mxGeometry x="280" y="230" width="120" height="60" as="geometry" />
        </mxCell>
        <mxCell id="wIX8_daclnW8jgaYg2AP-117" value="Create exit button" style="rounded=1;whiteSpace=wrap;html=1;fillColor=#fff2cc;strokeColor=#d6b656;" vertex="1" parent="WIyWlLk6GJQsqaUBKTNV-1">
          <mxGeometry x="469.5" y="60" width="120" height="60" as="geometry" />
        </mxCell>
        <mxCell id="wIX8_daclnW8jgaYg2AP-118" style="edgeStyle=orthogonalEdgeStyle;shape=connector;rounded=0;orthogonalLoop=1;jettySize=auto;html=1;labelBackgroundColor=default;strokeColor=default;align=center;verticalAlign=middle;fontFamily=Helvetica;fontSize=11;fontColor=default;endArrow=classic;" edge="1" target="wIX8_daclnW8jgaYg2AP-117" parent="WIyWlLk6GJQsqaUBKTNV-1" source="wIX8_daclnW8jgaYg2AP-114">
          <mxGeometry relative="1" as="geometry">
            <mxPoint x="660" y="-10" as="sourcePoint" />
          </mxGeometry>
        </mxCell>
        <mxCell id="wIX8_daclnW8jgaYg2AP-122" style="edgeStyle=orthogonalEdgeStyle;shape=connector;rounded=0;orthogonalLoop=1;jettySize=auto;html=1;labelBackgroundColor=default;strokeColor=default;align=center;verticalAlign=middle;fontFamily=Helvetica;fontSize=11;fontColor=default;endArrow=classic;" edge="1" parent="WIyWlLk6GJQsqaUBKTNV-1" source="wIX8_daclnW8jgaYg2AP-120" target="wIX8_daclnW8jgaYg2AP-123">
          <mxGeometry relative="1" as="geometry">
            <mxPoint x="340" y="580" as="targetPoint" />
          </mxGeometry>
        </mxCell>
        <mxCell id="wIX8_daclnW8jgaYg2AP-120" value="One of the buttons is pressed" style="rounded=0;whiteSpace=wrap;html=1;" vertex="1" parent="WIyWlLk6GJQsqaUBKTNV-1">
          <mxGeometry x="280" y="360" width="120" height="60" as="geometry" />
        </mxCell>
        <mxCell id="wIX8_daclnW8jgaYg2AP-124" style="edgeStyle=orthogonalEdgeStyle;shape=connector;rounded=0;orthogonalLoop=1;jettySize=auto;html=1;labelBackgroundColor=default;strokeColor=default;align=center;verticalAlign=middle;fontFamily=Helvetica;fontSize=11;fontColor=default;endArrow=classic;" edge="1" parent="WIyWlLk6GJQsqaUBKTNV-1" source="wIX8_daclnW8jgaYg2AP-123" target="wIX8_daclnW8jgaYg2AP-127">
          <mxGeometry relative="1" as="geometry">
            <mxPoint x="270" y="550" as="targetPoint" />
          </mxGeometry>
        </mxCell>
        <mxCell id="wIX8_daclnW8jgaYg2AP-123" value="" style="rounded=1;whiteSpace=wrap;html=1;fillColor=#e51400;strokeColor=#B20000;fontColor=#ffffff;" vertex="1" parent="WIyWlLk6GJQsqaUBKTNV-1">
          <mxGeometry x="20" y="525" width="120" height="60" as="geometry" />
        </mxCell>
        <mxCell id="wIX8_daclnW8jgaYg2AP-131" style="edgeStyle=orthogonalEdgeStyle;shape=connector;rounded=0;orthogonalLoop=1;jettySize=auto;html=1;entryX=0;entryY=0.5;entryDx=0;entryDy=0;labelBackgroundColor=default;strokeColor=default;align=center;verticalAlign=middle;fontFamily=Helvetica;fontSize=11;fontColor=default;endArrow=classic;" edge="1" parent="WIyWlLk6GJQsqaUBKTNV-1" source="wIX8_daclnW8jgaYg2AP-125" target="wIX8_daclnW8jgaYg2AP-130">
          <mxGeometry relative="1" as="geometry" />
        </mxCell>
        <mxCell id="wIX8_daclnW8jgaYg2AP-125" value="Is it first time loading the level?" style="rounded=0;whiteSpace=wrap;html=1;" vertex="1" parent="WIyWlLk6GJQsqaUBKTNV-1">
          <mxGeometry x="20" y="525" width="120" height="60" as="geometry" />
        </mxCell>
        <mxCell id="wIX8_daclnW8jgaYg2AP-126" value="Yes" style="edgeLabel;html=1;align=center;verticalAlign=middle;resizable=0;points=[];" vertex="1" connectable="0" parent="WIyWlLk6GJQsqaUBKTNV-1">
          <mxGeometry x="799.5263157894738" y="733.1842105263161" as="geometry" />
        </mxCell>
        <mxCell id="wIX8_daclnW8jgaYg2AP-132" style="edgeStyle=orthogonalEdgeStyle;shape=connector;rounded=0;orthogonalLoop=1;jettySize=auto;html=1;entryX=0.5;entryY=0;entryDx=0;entryDy=0;labelBackgroundColor=default;strokeColor=default;align=center;verticalAlign=middle;fontFamily=Helvetica;fontSize=11;fontColor=default;endArrow=classic;" edge="1" parent="WIyWlLk6GJQsqaUBKTNV-1" source="wIX8_daclnW8jgaYg2AP-127" target="wIX8_daclnW8jgaYg2AP-130">
          <mxGeometry relative="1" as="geometry" />
        </mxCell>
        <mxCell id="wIX8_daclnW8jgaYg2AP-127" value="Load level data" style="rounded=1;whiteSpace=wrap;html=1;fillColor=#f8cecc;strokeColor=#b85450;" vertex="1" parent="WIyWlLk6GJQsqaUBKTNV-1">
          <mxGeometry x="270" y="525" width="120" height="60" as="geometry" />
        </mxCell>
        <mxCell id="wIX8_daclnW8jgaYg2AP-130" value="Reset state of the game." style="rounded=1;whiteSpace=wrap;html=1;fillColor=#f8cecc;strokeColor=#b85450;" vertex="1" parent="WIyWlLk6GJQsqaUBKTNV-1">
          <mxGeometry x="270" y="660.5" width="120" height="60" as="geometry" />
        </mxCell>
      </root>
    </mxGraphModel>
  </diagram>
</mxfile>
